<svg xmlns="http://www.w3.org/2000/svg" viewBox="0 0 890.36 584.98"><defs><style>.cls-1,.cls-22,.cls-29{fill:none;}.cls-1{stroke:#3ba802;stroke-width:10px;}.cls-1,.cls-29,.cls-5{stroke-miterlimit:10;}.cls-2{fill:#123c41;}.cls-3{fill:#2bc5b9;}.cls-4{fill:#174f57;}.cls-21,.cls-5{fill:#3ba802;}.cls-5{stroke:#06f400;}.cls-6{fill:#04c2b4;}.cls-7{fill:#3ca808;}.cls-8{fill:#75df38;}.cls-9{fill:#fadfb6;}.cls-10{fill:#1a596b;}.cls-11{fill:#c0dfd2;}.cls-12{fill:#fca128;}.cls-13{fill:#0a2d33;}.cls-14{fill:#e88e15;}.cls-15{fill:#3ba904;}.cls-16{fill:#133d43;}.cls-17{fill:#fcfdfd;}.cls-18{fill:#0e393e;}.cls-19{fill:#134240;}.cls-20{fill:#078036;}.cls-23{fill:#f0bb73;}.cls-24{fill:#4ebb10;}.cls-25{fill:#0d2829;}.cls-26{fill:#0f3842;}.cls-27{fill:#144952;}.cls-28{fill:#3da905;}.cls-29{stroke:#fff;stroke-width:6px;}</style></defs><g id="Layer_2" data-name="Layer 2"><g id="Layer_1-2" data-name="Layer 1"><path class="cls-1" d="M225,344.14c0-1.88-.05-3.75-.05-5.62C224.91,155.55,374,5,555.13,5S885.36,155.55,885.36,338.52a336,336,0,0,1-53.77,182.41"/><path class="cls-2" d="M837.65,517.16a67.63,67.63,0,0,1-135.26,0c0-37.34,32.33-66.29,67.63-67.62C807.34,448.13,837.65,479.82,837.65,517.16Z"/><path class="cls-3" d="M552.75,135.11C557,118.25,567.65,107.47,584,102a38.2,38.2,0,0,0,4.26-2h17l1,1.39c-.9.3-1.86,1-2.69.83a42,42,0,0,0-30.52,6.86c-8.69,5.85-15.65,13.73-18,24.62C554.92,134.33,553.55,134.66,552.75,135.11Z"/><path class="cls-4" d="M494.41,237.72a22.49,22.49,0,0,0,3.06-3.2c9.92-15.51,24-26.57,39.06-36.56,8.72-5.78,17.58-11.34,26.38-17,.55-.32,1.11-.63,1.67-.94l.3,0,.31,0,.92.74a1.54,1.54,0,0,0,.87.34l1.29.93,6,4a47.59,47.59,0,0,0,2.71,5.27c2.7,4,5.58,7.83,8.39,11.74q-.65,27.25-1.28,54.51c-.45,7.65-.9,15.3-1.4,23.65,10.45.95,20.55,2.24,30.69,2.63,4.19.16,6.83,1,7.88,5.15l1,12c-.14,1.62-.29,3.24-.42,4.7-10,2.4-19.73,5.07-29.58,7-11.11,2.16-10.15.37-10,11.89.07,3.87-1.16,5.59-4.95,5.52-22.55,0-45.1.13-67.64-.14-7.72-.09-15.41-1.23-23.12-1.9l-2.34-.78c-5.92-2-6.51-3.13-4.63-8.93.71-2.2,1.15-4.51,2-6.66,1.34-3.38.71-5.95-1.34-9.12A26.84,26.84,0,0,1,476.4,291c-1.11-11.06,2.71-21.26,7.08-31.15C486.8,252.36,490.74,245.1,494.41,237.72Z"/><path class="cls-5" d="M690,510l-.83.88c-3,2.76-5.68,6.08-9.1,8.17-8.1,5-16.56,9.32-24.87,13.93l-2,.21-11.06,1.72-1.9.11-12,.26-7,.13-6.09,1.49-2.91.15c-9.58.39-19.16.92-28.75,1.15-16.42.39-32.84.6-49.26.89l-7.89-.25-12.27-8.74q-3.93-6-7.87-12l-.2-3.49c8.46.49,16.91,1,25.37,1.46,13.44.7,26.87,1.51,40.32,1.94,26.11.84,52.22,2,78.33,1.92,12.89,0,23.62-6.56,31.25-17.13,4.86-6.74,9.12-13.91,13.54-20.95,8.63-13.8,17.72-27.35,25.65-41.55,10.34-18.52,11.3-37.94,2.22-57.38-7.45-16-15.24-31.77-22.88-47.64-4.69-9.75-4.58-21.74,8.3-27.14C718.21,321,728.18,334,738.43,346.78c11.12,13.88,22.25,27.76,30.11,43.82,2.33,4.76,3.3,10.18,5,15.75l18.35,2.93c12.18,6.42,21.6,15.75,28.93,27.3,1.8,2.84,3.56,5.69,5.34,8.53h0l3.81,8.29a.78.78,0,0,0,.17.69c0,.65,0,1.29,0,1.94a.86.86,0,0,0-.15.73l-6.24,4-3.5.45-14,1.82c-15.89.34-31.86-.11-47.66,1.31-10.81,1-20,6.73-27.47,15.1-6.74,7.6-12.11,16.57-21.27,21.82l-9.68.59C694.49,501.57,693.08,506.8,690,510ZM706.23,490l7.69,6.09,1.37-6.09Z"/><path class="cls-6" d="M565.19,180l-.31,0-.31,0c-.67-1-1.34-2-2-3a.63.63,0,0,1-.52-.61c.3-1.18.61-2.36.91-3.54l-4.05-.16-.18-.26c.15-.64.59-1.4.39-1.89-1.83-4.4-5.34-8.39-3-13.74.16-.36-.64-1.06-.84-1.65-1-3-2.41-5.92-2.89-9s0-6,.14-9c.08-.67.17-1.34.25-2,.8-.45,2.17-.78,2.31-1.37,2.38-10.89,9.34-18.77,18-24.62a42,42,0,0,1,30.52-6.86c.83.13,1.79-.53,2.69-.83l1.87.17,11.93,8.1-.33,1-9.76.68c.31,3.65-.53,7.73,1.12,9.94,2.89,3.84,1.23,5-1.85,6.36L606,134c-3.27.82-7,2.13-3.71,6,2.31,2.71,1,4.13-.17,5.94a25.64,25.64,0,0,1-3.25,3.66l3.5,7.43a39.85,39.85,0,0,1-1.39,4.59c-2.19,5.14-4.49,10.24-6.75,15.36l-2.49,4a11.39,11.39,0,0,1-9.53,6.76l-8-1.72-6-4a4.93,4.93,0,0,0,0-.94c3.84-2.48,4.14-9.21,1-11-.69,1.93-1.41,3.94-2.12,5.95l.63-.08.43,5-1.23.1a1.54,1.54,0,0,1-.87-.34Z"/><path class="cls-7" d="M709.29,306.69l-1,.45c-6.34-2.33-11.77,1.18-13.84,8.94-1.29,0-2.79-.35-3.83.18-8.23,4.17-16.38,8.52-24.54,12.81-2.23-2.77-4.86-5.32-6.59-8.38-2.28-4-3.51-8.62-5.85-12.59-1.57-2.67-4.27-4.69-6.46-7,4,0,8,.5,11.92,0,6.39-.88,13.18-1.11,18.2-6.09,1.21-1.2,3-3.44,2.54-4.31a7.07,7.07,0,0,0-4.49-3.25,116.77,116.77,0,0,0-14.66-2.2c-1.47-.13-3.05,1.05-4.58,1.63l-5.84-2.93,8.29-5c1.56-.38,3.41-.36,4.63-1.22,4.77-3.4,9.34-7.07,14-10.64.41,1,.56,2.29,1.28,3a24,24,0,0,0,4,2.6c.21-1.6.76-3.25.55-4.79a24.86,24.86,0,0,0-1.79-5c.29-.4.59-1.14.88-1.13,6.33.18,12.66.45,19,.7,1.39,4.2,2.85,8.39,4.15,12.62,3,9.89,6,19.81,9,29.71l-3.2,1.3Z"/><path class="cls-2" d="M658.57,279l-8.29,4.94c-6.1-2.22-12-1.46-17.86,1-3.66,1.53-7.45,2.75-11.18,4.11-1-4.16-3.69-5-7.88-5.15-10.14-.39-20.24-1.68-30.69-2.63.5-8.35,1-16,1.4-23.65,17.52,2.24,35,4.45,52.56,6.73,7.2.93,14.37,2,21.55,3Z"/><path class="cls-8" d="M694.46,316.08c2.07-7.76,7.5-11.27,13.84-8.94a.75.75,0,0,1-.18.91c-12.88,5.4-13,17.39-8.3,27.14,7.64,15.87,15.43,31.68,22.88,47.64,9.08,19.44,8.12,38.86-2.22,57.38-7.93,14.2-17,27.75-25.65,41.55-4.42,7-8.68,14.21-13.54,20.95-7.63,10.57-18.36,17.11-31.25,17.13-26.11.06-52.22-1.08-78.33-1.92-13.45-.43-26.88-1.24-40.32-1.94-8.46-.43-16.91-1-25.37-1.47.43-1.46.85-2.93,1.27-4.39l23.18,2.78c12.42.38,24.85.8,37.29,1.11,3.83.1,7.68-.09,11.52-.15l29.92,1.28a6.43,6.43,0,0,0,1.86.61c13.3.16,26.64.84,39.9.21,11.1-.54,20.37-6,27-15C682.79,494.22,687,487,691.48,480c9.18-14.94,19.07-29.52,27.34-45,6.74-12.56,9.39-26.7,3.59-40.38-8.42-19.83-18-39.16-27.08-58.7C693,329.44,692.4,322.82,694.46,316.08Z"/><path class="cls-9" d="M594.25,177c2.26-5.12,4.56-10.22,6.75-15.36a39.85,39.85,0,0,0,1.39-4.59L607,145l27.65,8.42c-5.78,11.92-11.33,22.92-23.48,28.1-3.29,1.4-7.3,1.08-11,1.56Z"/><path class="cls-10" d="M681.25,262.89a24.86,24.86,0,0,1,1.79,5c.21,1.54-.34,3.19-.55,4.79a24,24,0,0,1-4-2.6c-.72-.68-.87-2-1.28-3-.55-3.92-3.69-4.38-6.7-5-8.27-7.74-12.07-17-9.13-28.29,1.62-6.23,5.93-7.71,10.5-3.34,7,6.68,9.51,15,7.67,24.56C678.94,258,677.74,260.89,681.25,262.89Z"/><path class="cls-8" d="M714.26,304.79c-3-9.9-6-19.82-9-29.71-1.3-4.23-2.76-8.42-4.15-12.62,1.75.37,3.69.37,5.22,1.16,9.11,4.72,15.82,20,12.93,29.86C718.12,297.41,716,301,714.26,304.79Z"/><path class="cls-3" d="M609.28,127.73c3.08-1.4,4.74-2.52,1.85-6.36-1.65-2.21-.81-6.29-1.12-9.94l9.76-.68.33-1-11.93-8.1c18.42,3.81,27.41,17.16,34.12,32.81l-.76,1.49L621.32,129l3.62-.5.39-1.51-6.62-3c1.65-2,3.18-4.52,6-1.31s6.28,2.4,10.53,2.11l-7.71-9.82-3.8,2c-.49-1.19-1-2.39-1.57-3.87-1.2,0-2.63-.34-3.81.07-2,.72-4.58,1.44-5.66,3-1.32,1.93-.45,4,2,5.67,2.62,1.79,4.43,4.76,6.59,7.21Z"/><path class="cls-9" d="M670.48,262.07c3,.65,6.15,1.11,6.7,5-4.64,3.57-9.21,7.24-14,10.64-1.22.86-3.07.84-4.63,1.22l-.39-11.61c3.6-.82,7.23-1.52,10.76-2.57C669.66,264.57,670,263,670.48,262.07Z"/><path class="cls-2" d="M574.25,186.07l8,1.72,2.37,5.13c.23.7.46,1.4.68,2.11l.07,8.05c-2.81-3.91-5.69-7.77-8.39-11.74A47.59,47.59,0,0,1,574.25,186.07Z"/><path class="cls-3" d="M607,145l-4.62,12.07c-1.09-2.33-2.19-4.65-3.5-7.43a25.64,25.64,0,0,0,3.25-3.66c1.13-1.81,2.48-3.23.17-5.94-3.32-3.91.44-5.22,3.71-6Z"/><path class="cls-4" d="M594.25,177l5.94,6.06L591.75,181Z"/><path class="cls-11" d="M830,453.39l-3.81-8.29Z"/><path class="cls-4" d="M585.28,195c-.22-.71-.45-1.41-.68-2.11C584.83,193.62,585.06,194.32,585.28,195Z"/><path class="cls-8" d="M709.29,306.69l1.77-.6Z"/><path class="cls-11" d="M830.2,456c0-.65,0-1.29,0-1.94Z"/><path class="cls-12" d="M407.54,348.16c-2.91-.42-5.81-1-8.73-1.25-9.43-.77-18.86-1.44-28.29-2.09-3.13-.22-4.66-1.82-4.17-4.87,1.45-9.15,3-18.28,4.6-27.41q2.69-15.41,5.47-30.8c1.65-9.12,3.37-18.23,5-27.35,1-5.53,2.16-11,2.9-16.6.93-7,2.69-9.06,9.72-8.58,14.66,1,29.29,2.39,43.93,3.61l31.26,2.59q-5.42,30.83-10.82,61.66l-.32-1.89-6.64-2.32.33-1.48L450.46,287a51.7,51.7,0,0,0-3.48-6.49c-6-8.27-19.9-11.85-31.65-8.38-7,2.07-12.59,5.73-15.24,12.9-.91,1.72-1.83,3.44-2.55,4.81l-4.2,3.35,3.84,4.06c.34,1.28.68,2.55,1,3.83.15,5.94,1.28,7.19,7.06,8.07,1.64.24,3.23.83,4.87,1,12.19,1.08,24.33,4,36.64,1.11,4.79-1.14,5.9-3,4.8-8.37h-34.3L415,301.23l6.36-.33a98,98,0,0,0,10.42.11c8.83-.81,17.63-1.93,26.44-2.92a57.56,57.56,0,0,1-.35,6.45c-1.16,7-2.29,14-3.78,20.92-1.76,8.18-3.89,16.29-5.86,24.42Z"/><path class="cls-13" d="M407.54,348.16l40.72,1.72L478.15,353l9,.92c3.12,10,8.86,18.14,18.77,21.83,12.51,4.67,25.3,8.72,38.2,12.15,11.61,3.08,23.53,5,35.33,7.37,9.8,1.95,19.63,3.77,30,5.76-.72,1.46-1.35,2.72-2,4-1.75.45-4.44.35-5.08,1.44-4.16,7.12-10.6,9.61-18.28,10l-9.72-1.17c-2.12-.78-4.22-1.6-6.35-2.33-8.28-2.84-16.59-5.62-24.86-8.48-7-2.42-14-4.93-21-7.41-11.93-4-23.72-8.53-35.85-11.8-7.05-1.89-14.64-1.76-22-2.54l2.58-1.67c-10.53,0-20.35-.05-30.17.07-.85,0-1.68,1.1-2.52,1.69l-4,.38a65.34,65.34,0,0,1-7.37.51c-7.69-.3-15.38-.79-23.07-1.21-5.4-4.55-3.76-10.6-2.86-16.09,1.13-6.81,2.91-13.67,10.35-16.83C407.54,349.47,407.47,348.65,407.54,348.16Z"/><path class="cls-14" d="M478.15,353l-29.89-3.08c2-8.13,4.1-16.24,5.86-24.42,1.49-6.92,2.62-13.93,3.78-20.92a57.56,57.56,0,0,0,.35-6.45c.06-.34.12-.68.19-1q5.4-30.84,10.82-61.66l5.22.26,4.37.39,15.56,1.66c-3.67,7.38-7.61,14.64-10.93,22.16-4.37,9.89-8.19,20.09-7.08,31.15a26.84,26.84,0,0,0,3.85,11.53c2.05,3.17,2.68,5.74,1.34,9.12-.85,2.15-1.29,4.46-2,6.66-1.88,5.8-1.29,7,4.63,8.93Q481.19,340.11,478.15,353Z"/><path class="cls-7" d="M323.81,485.67c-2.11,1.57-4.06,3.43-6.36,4.62-1.56.81-4.23,1.53-5.26.76-1.22-.9-1.75-3.52-1.56-5.29s1.42-3.68,2.53-5.29q15.16-21.9,30.46-43.72a14.67,14.67,0,0,1,1.65-1.7l.15.15c.28,1.28.55,2.56.83,3.84-3,4-6.26,7.89-9,12.1-1.56,2.39-3.65,5.62-3.12,7.93a10.41,10.41,0,0,0,8.43,8,17.55,17.55,0,0,1,3.65,1.55l-4.16,1.15-.08-.07-18,16Z"/><path class="cls-15" d="M430.25,383.19l4-.38,17.05.34c-3.9.34-7.9.25-11.7,1.08-27,5.92-53.45,13.11-74.36,32.82,0-8.16,5.63-14.71,14.81-16.76l-2.27-2.14,12.48-10,2-1,5.93-2.12h0c9.19,0,18.38.11,27.56-.05C427.28,384.93,428.76,383.81,430.25,383.19Z"/><path class="cls-7" d="M390.28,388.11l-12.48,10,2.27,2.14c-9.18,2-14.83,8.6-14.81,16.76h0l-3.95-2.91a7.21,7.21,0,0,0-.58-.66C368.79,402.94,377.44,393.09,390.28,388.11Z"/><path class="cls-3" d="M552.5,137.11c-.09,3-.59,6.09-.14,9s1.86,6,2.89,9c.2.59,1,1.29.84,1.65-2.33,5.35,1.18,9.34,3,13.74.2.49-.24,1.25-.39,1.89C551.91,161.47,547.78,150.07,552.5,137.11Z"/><path class="cls-7" d="M430.25,383.19c-1.49.62-3,1.74-4.47,1.77-9.18.16-18.37.06-27.56.05l1.58-2.53c7.7.43,15.39.92,23.08,1.22A65.34,65.34,0,0,0,430.25,383.19Z"/><path class="cls-7" d="M348.77,429.52l12-16a7.21,7.21,0,0,1,.58.66c-2.09,3.45-4,7-6.33,10.3-1.54,2.13-3.74,3.79-5.65,5.65Z"/><path class="cls-3" d="M558.89,172.67l4.05.16c-.3,1.18-.61,2.36-.91,3.54Z"/><path class="cls-7" d="M398.22,385l-5.93,2.12Z"/><path class="cls-7" d="M345.27,435.05l3.5-5.53.56.57q-1.95,2.57-3.91,5.11Z"/><path class="cls-3" d="M562.55,177c.68,1,1.35,2,2,3l-1.66.94Z"/><path class="cls-12" d="M478.85,236.06l-4.37-.39Z"/><path class="cls-16" d="M330,506.08l.66-1.87.93-3,.77-2.08,5.27-9.72,0-.28v.28l15.59-18.25,25.06,4c.74,2.49,1.48,5,2.28,7.64,3.68-2.31,5.9-1.7,6.72,2.28l-8,2c-1-1.73-1.95-3.51-3.07-5.17-.16-.24-1.14.08-1.75.15-1.31-.48-3.29-1.76-3.82-1.31-8.21,7-16,14.23-20.43,24.49-11.2,25.87,1.7,54,28.33,59.32,20.69,4.14,37.35-3.92,50.27-20.23l21.39-.45c-7.78,16-20.54,26.9-36,35l-2.05.8-14.05,4.21v-.08L379.24,585l-1.87-.22-4.85-1-.06.07-11.93-4.06v0l-4-2-.27.09.28-.06A66.15,66.15,0,0,1,330.37,547l-.6-2.11c-.42-1.31-.85-2.63-1.28-3.94l-.44-2.9-1.49-10.13c0-.91,0-1.83,0-2.75q1.49-9,3-17.93l-.06,0Z"/><path class="cls-13" d="M379.26,487l8-2c18.56-1.43,35.64,3.12,51.46,12.76l18.54,11.27c10.31,6.89,21,12.78,34,12l15-3q3.93,6,7.87,12l-1.89.86-12,.89-19,7.06-1.93.31-7.07,1.69-2.94.27-1,0-6.11.63-5.05.87-3.86.38-3.07.8-21.39.45-7.18,0-14.3-2.14-15-2.09-17-5-16-9-6.86-5c-.9-5-2.59-9.95,1.48-14.52,3.28-3.68,6.26-7.62,9.37-11.45Zm48.33,46.53c3.42-1,10-2.39,16.09-5,3-1.29,6.9-4.78,7-7.39s-3.75-6.06-6.68-7.6c-16.31-8.53-33.08-16-51.61-18.36-10.88-1.4-20.72.89-29.24,8-3.81,3.17-4.26,8.41-.4,11.64,4.15,3.47,8.54,7.11,13.46,9.11C391.51,530.2,407.79,532.14,427.59,533.57Z"/><path class="cls-17" d="M628.3,535.23l12-.26Z"/><path class="cls-17" d="M356.52,577.73l4,2Z"/><path class="cls-17" d="M331.61,501.18l-.93,3-1.1-2.24Z"/><path class="cls-17" d="M330,506.08l-.57,1.18Z"/><path class="cls-17" d="M468.27,541.16l1,0Z"/><path class="cls-18" d="M607.53,405c.63-1.26,1.26-2.52,2-4-10.42-2-20.25-3.81-30-5.76-11.8-2.35-23.72-4.29-35.33-7.37-12.9-3.43-25.69-7.48-38.2-12.15-9.91-3.69-15.65-11.85-18.77-21.84l-.6-25.82c7.71.67,15.4,1.81,23.12,1.9,22.54.27,45.09.12,67.64.14,1.29,1.4,2.32,3.35,3.92,4.11,7.76,3.69,15.75,6.92,23.52,10.59,14.91,7,27.86,17,40.4,27.5.13,1-.09,2.24.42,3,5.87,8.62,6,18.51,4.24,27.86-4.13,22.37-13.83,42.75-24.66,62.61-2.28,4.19-3.92,8.74-5.86,13.12q-3.39,4.65-6.79,9.31c-1.88,3.78-3.71,7.66-9.13,5L592.19,490,586.34,486c.94-1.16,2.34-2.18,2.75-3.5.95-3.09,1.44-6.33,2.11-9.5,2.65-10.24,5.44-20.45,7.9-30.73C602.06,429.9,604.73,417.42,607.53,405Z"/><path class="cls-9" d="M634.14,298.93,622.23,301l-1-12c3.73-1.36,7.52-2.58,11.18-4.11,5.87-2.46,11.76-3.22,17.86-1l5.85,2.93c1.57,1.72,3.15,3.43,4.72,5.14l-.82,1.69C650.42,291.29,640.05,285.69,634.14,298.93Z"/><path class="cls-3" d="M567,181.1l1.23-.1.09.09a4.93,4.93,0,0,1,0,.94Z"/><path class="cls-3" d="M565.19,180l.92.74Z"/><path class="cls-19" d="M506.22,518l-15,3c4.72-6.22,8.64-12.71,7.06-21,3.29,2.59,6.62,5.14,9.82,7.85.21.18-.54,1.5-.85,2.3-.42,1.46-.84,2.93-1.27,4.39C506.09,515.68,506.16,516.85,506.22,518Z"/><path class="cls-7" d="M706.23,490h9.06l-1.37,6.09Z"/><path class="cls-3" d="M568.21,181l-.43-5-.63.08c.71-2,1.43-4,2.12-5.95,3.17,1.76,2.87,8.49-1,11Z"/><path class="cls-20" d="M673.73,365.08c-3-11.9-7.92-23.4-7.64-36,8.16-4.29,16.31-8.64,24.54-12.81,1-.53,2.54-.14,3.83-.18-2.06,6.74-1.45,13.36.87,19.9-1.26.34-2.55,1.06-3.77.95-5.2-.48-5.87,2.64-5.21,6.52.77,4.52,1.9,9,2.89,13.47,1.14,5.11-.86,7.85-6.1,8.1C680,365.16,676.87,365.07,673.73,365.08Z"/><path class="cls-19" d="M634.14,298.93c5.91-13.24,16.28-7.64,25.89-5.26l.82-1.69c-1.57-1.71-3.15-3.42-4.72-5.14,1.52-.58,3.1-1.76,4.57-1.63a116.77,116.77,0,0,1,14.66,2.2,7.07,7.07,0,0,1,4.49,3.25c.41.87-1.33,3.11-2.54,4.31-5,5-11.81,5.21-18.2,6.09-3.9.54-7.94.06-11.92,0a72.35,72.35,0,0,1-8.34-.22C637.22,300.67,635.7,299.61,634.14,298.93Z"/><path class="cls-15" d="M673.73,365.08c3.14,0,6.28.08,9.41-.06,5.24-.25,7.24-3,6.1-8.1-1-4.49-2.12-8.95-2.89-13.47-.66-3.88,0-7,5.21-6.52,1.22.11,2.51-.61,3.77-.95,9.08,19.54,18.66,38.87,27.08,58.7,5.8,13.68,3.15,27.82-3.59,40.38-8.27,15.44-18.16,30-27.35,45-.57-.41-1.13-1.15-1.73-1.2-5.89-.46-9.07,3.48-11.7,7.77a43.58,43.58,0,0,1-28.25,20.21c-8.28,1.89-17,1.71-25.58,2.46-5.28-1.71-10.63-3.22-15.77-5.27-1.57-.63-2.53-2.77-4.3-4.85l-3.78-.73c1-1.12,2-2.24,3-3.37,3-.61,7,1.82,8.66-2.6,1.19-3.14,3.37-3.57,6.27-3.44,4,.18,8,.18,11.92,0,2.69-.13,5.36-.72,8-1.1,4.21-1,8.52-1.68,12.62-3,8.18-2.69,11.27-7.41,9.26-13.37,5.48-6.46,11.34-12.9,12.28-21.69.53-4.95-.7-10.08-1-15.13-.32-6.08-.95-12.19-.58-18.24.83-13.35,2.3-26.66,3.28-40C674.4,372.69,673.89,368.87,673.73,365.08Z"/><path class="cls-21" d="M507.29,510.12c.31-.8,1.06-2.12.85-2.3-3.2-2.71-6.53-5.26-9.82-7.85v0l-4.1-4.87-3-3.89c8.73-4.43,17.81-8.28,26.1-13.41,9.77-6,16.22-14.94,18-26.68.43-2.94.65-5.91,1.17-8.83,2.34-13.38-.32-25.64-8.37-36.6-1.75-2.39-4.12-4.31-6.07-6.58-.31-.36.15-1.37.25-2.09,7,2.48,14,5,21,7.41,8.27,2.86,16.58,5.64,24.86,8.48,2.13.73,4.23,1.55,6.35,2.33a33.09,33.09,0,0,0,3.15,1.58c2.07.79,4.18,1.45,6.27,2.16,0,.67,0,1.34,0,2l-4.4,10.06-.13.11c-3.08,3.32-6.33,6.57-5.08,11.76,0,3.39,0,6.77,0,10.16-1.41,5.24,2.06,8.4,5,11.79l.13.12c.58,1.64,1.16,3.27,1.75,4.91-5.84,8.47-5.81,8.6,3.2,14.7.67.45,1.33.93,2,1.4l5.85,3.91-3,6.05c-2.24,1.26-5.1,2-6.57,3.9-2.05,2.61-3.07,6-4.53,9.12-15.58,0-31.16,0-46.75.07a23.32,23.32,0,0,0-5,1.12l4.18,2.69Z"/><path class="cls-20" d="M624.21,509.26c8.54-.75,17.3-.57,25.58-2.46A43.58,43.58,0,0,0,678,486.59c2.63-4.29,5.81-8.23,11.7-7.77.6.05,1.16.79,1.73,1.2-4.49,7-8.68,14.2-13.55,20.91-6.59,9.05-15.86,14.49-27,15-13.26.63-26.6-.05-39.9-.21a6.43,6.43,0,0,1-1.86-.61c6.21-1,12.81,1.48,19.81-1.85Z"/><path class="cls-13" d="M624.21,509.26l4.8,4c-7,3.33-13.6.85-19.81,1.85l-29.92-1.28c-.39-1.3-.79-2.59-1.18-3.89a2.18,2.18,0,0,0,0-1c1.46-3.08,2.48-6.51,4.53-9.12,1.47-1.87,4.33-2.64,6.57-3.9l11.19,2.41,3.78.73c1.77,2.08,2.73,4.22,4.3,4.85C613.58,506,618.93,507.55,624.21,509.26Z"/><path class="cls-20" d="M578.1,510c.39,1.3.79,2.59,1.18,3.89-3.84.06-7.69.25-11.52.15-12.44-.31-24.87-.73-37.29-1.11l-4.18-2.7Z"/><path class="cls-6" d="M621.28,129c-2.16-2.45-4-5.42-6.59-7.21-2.46-1.69-3.33-3.74-2-5.67,1.08-1.58,3.63-2.3,5.66-3,1.18-.41,2.61-.07,3.81-.07.6,1.48,1.08,2.68,1.57,3.87l3.8-2,7.71,9.82c-4.25.29-7.64,1.2-10.53-2.11s-4.34-.71-6,1.31l6.62,3-.39,1.51-3.62.5Z"/><path class="cls-22" d="M451.81,291.38l-.33,1.48c-15.74-.56-31.48-1.25-47.23-1.61-5-.12-5.53-2.35-4.16-6.27,2.65-7.17,8.24-10.83,15.24-12.9,11.75-3.47,25.68.11,31.65,8.38a51.7,51.7,0,0,1,3.48,6.49Z"/><path class="cls-22" d="M417.28,302.82h34.3c1.1,5.41,0,7.23-4.8,8.37-12.31,2.92-24.45,0-36.64-1.11-1.64-.15-3.23-.74-4.87-1-5.78-.88-6.91-2.13-7.06-8.07Z"/><path class="cls-22" d="M458.44,297.07c-.07.34-.13.68-.19,1-8.81,1-17.61,2.11-26.44,2.92a98,98,0,0,1-10.42-.11l-24.21-3.7-3.84-4.06c1.9-.22,3.87-.89,5.69-.59,14.72,2.44,29.42,4.43,44.43,2.77,4.83-.54,9.77-.12,14.66-.14Z"/><path class="cls-23" d="M458.12,295.18c-4.89,0-9.83-.4-14.66.14-15,1.66-29.71-.33-44.43-2.77-1.82-.3-3.79.37-5.69.59l4.2-3.35c.72-1.37,1.64-3.09,2.55-4.81-1.37,3.92-.81,6.15,4.16,6.27,15.75.36,31.49,1.05,47.23,1.61Z"/><path class="cls-23" d="M397.18,297.2l24.21,3.7-6.36.33,2.25,1.59L398.21,301Z"/><path class="cls-23" d="M451.81,291.38,450.46,287Z"/><path class="cls-24" d="M522.22,397.06c-.1.72-.56,1.73-.25,2.09,1.95,2.27,4.32,4.19,6.07,6.58,8.05,11,10.71,23.22,8.37,36.6-.52,2.92-.74,5.89-1.17,8.83-1.73,11.74-8.18,20.64-18,26.68-8.29,5.13-17.37,9-26.1,13.4l-24.93-2.18c-7.55-1.33-15.08-2.75-22.65-4-10.07-1.63-20.17-3.09-30.26-4.63l-35.1-5.35-25.06-4-7-2.49a17.55,17.55,0,0,0-3.65-1.55,10.41,10.41,0,0,1-8.43-8c-.53-2.31,1.56-5.54,3.12-7.93,2.74-4.21,6-8.09,9-12.1l19-22h0c20.91-19.71,47.38-26.9,74.36-32.82,3.8-.83,7.8-.74,11.7-1.08l13.06-.43c7.35.78,14.94.65,22,2.54C498.5,388.53,510.29,393.06,522.22,397.06ZM390.34,419.14a22.57,22.57,0,0,0,3.79-1.06c21.67-10.16,44.08-16.53,68.32-13,16.18,2.35,29.77,8.94,35.77,25.34,2.36,6.45,2.82,13.59,4.09,20.12-.27.24.1.08.18-.18,6-19.93-2.62-42.5-26.58-47.35-18.78-3.8-37.35-2.55-55.62,2.37-10.67,2.87-21.34,6.29-30.12,13.61l-.38.54Z"/><path class="cls-25" d="M464.38,382.72l-13.06.43-17.05-.34c.84-.59,1.67-1.68,2.52-1.69,9.82-.12,19.64-.07,30.17-.07Z"/><path class="cls-21" d="M584.17,416.45l-.3,2.57c-2.09-.71-4.2-1.37-6.27-2.16a33.09,33.09,0,0,1-3.15-1.58Z"/><path class="cls-15" d="M365.26,417.05l-19,22c-.28-1.28-.55-2.56-.83-3.84q2-2.55,3.91-5.11c1.91-1.86,4.11-3.52,5.65-5.65,2.35-3.26,4.24-6.85,6.33-10.3Z"/><path class="cls-2" d="M378.25,475.11l35.1,5.35c10.09,1.54,20.19,3,30.26,4.63,7.57,1.22,15.1,2.64,22.65,4l-6.39,3,4.93,4.65c-6.32-.24-6.81,3.75-7.47,7.43a28.8,28.8,0,0,0-.08,4.92l-18.54-11.27c-15.82-9.64-32.9-14.19-51.46-12.76-.82-4-3-4.59-6.72-2.28C379.73,480.08,379,477.6,378.25,475.11Z"/><path class="cls-2" d="M363.25,495c1.67-1.75,3.41-3.43,5-5.26,2.14-2.53,4.15-5.17,6.21-7.76.61-.07,1.59-.39,1.75-.15,1.12,1.66,2.07,3.44,3.07,5.17Z"/><path class="cls-26" d="M427.59,533.57c-19.8-1.43-36.08-3.37-51.39-9.6-4.92-2-9.31-5.64-13.46-9.11-3.86-3.23-3.41-8.47.4-11.64,8.52-7.1,18.36-9.39,29.24-8,18.53,2.39,35.3,9.83,51.61,18.36,2.93,1.54,6.77,5.1,6.68,7.6s-4,6.1-7,7.39C437.61,531.18,431,532.56,427.59,533.57Z"/><path class="cls-16" d="M457.25,509.06a28.8,28.8,0,0,1,.08-4.92c.66-3.68,1.15-7.67,7.47-7.43l-4.93-4.65,6.39-3,24.93,2.18,3,3.9,4.1,4.87v0c1.58,8.34-2.34,14.83-7.06,21C478.23,521.84,467.56,516,457.25,509.06Zm11-3.12c0,6,2.95,9.12,8.56,9.1,5.05,0,10.42-4.94,10.43-9.54,0-6.29-2.93-9.06-9.61-9.13C473.28,496.33,468.28,501.43,468.25,505.94Z"/><path class="cls-4" d="M386.24,559.78c-9.42-.41-17.59-3.64-24.06-10.69,1.1-.62,2.49-1,3.26-1.91,3.37-4,6.56-8.08,9.81-12.14l17,5Z"/><path class="cls-16" d="M386.24,559.78l6-19.76,15,2.08q3.46,4.46,6.94,8.92A39.88,39.88,0,0,1,386.24,559.78Z"/><path class="cls-16" d="M375.25,535c-3.25,4.06-6.44,8.18-9.81,12.14-.77.91-2.16,1.29-3.26,1.91a31.11,31.11,0,0,1-9.79-21l6.87-2Z"/><path class="cls-4" d="M414.25,551q-3.48-4.46-6.94-8.92l14.3,2.15Z"/><path class="cls-27" d="M359.26,526l-6.87,2v-7Z"/><path class="cls-25" d="M645.16,372.29c13.32,10.38,14.63,24.31,11.73,39.5-4,20.81-12,40.17-20.8,59.28-1.17,2.54-1.93,5.27-2.87,7.91l-13.92-.11c1.94-4.38,3.58-8.93,5.86-13.12,10.83-19.86,20.53-40.24,24.66-62.61,1.73-9.35,1.63-19.24-4.24-27.86C645.07,374.53,645.29,373.3,645.16,372.29Z"/><path class="cls-20" d="M619.3,478.87l13.92.11c10.21,2,18.62-2.49,26.89-7.47,2,6-1.08,10.68-9.26,13.37-4.1,1.34-8.41,2-12.62,3l-25.72.28Q615.9,483.52,619.3,478.87Z"/><path class="cls-20" d="M582.58,469.19,591.2,473c-.67,3.17-1.16,6.41-2.11,9.5-.41,1.32-1.81,2.34-2.75,3.5-.67-.47-1.33-1-2-1.4-9-6.1-9-6.23-3.2-14.7Z"/><path class="cls-9" d="M600.36,498.41,589.17,496l3-6.05,11.19,3.22c0,.62,0,1.25,0,1.87C602.35,496.17,601.35,497.29,600.36,498.41Z"/><path class="cls-7" d="M603.34,495c0-.62,0-1.25,0-1.87,5.42,2.67,7.25-1.21,9.13-5l25.72-.28c-2.68.38-5.35,1-8,1.1-4,.18-8,.18-11.92,0-2.9-.13-5.08.3-6.27,3.44C610.34,496.86,606.32,494.43,603.34,495Z"/><path class="cls-27" d="M808.48,530.73c-2.13,8.61-7.24,15.16-14.12,20.49-4-4.55-7.91-9.26-12.17-13.61-2.85-2.91-5.73-2.09-7.1,1.65-2.2,6-4.45,12-6.31,18.18-.3,1,1.31,2.63,2,4-9.89,1.5-18.82-.68-26.69-6.95.84-1.76,1.4-3.73,2.55-5.25,3.88-5.11,8-10,11.93-15.12.76-1,1.45-3.26,1-3.74a7.11,7.11,0,0,0-4.54-2.14c-8.24.09-16.48.52-24.72.83a37.4,37.4,0,0,1,6.47-26.14c8.36,2.38,15.86,7.62,24.76,8.18l1.52-1.33-11.16-21.91a40.47,40.47,0,0,1,27.59-6.53c-.08,6.68-.2,13.37-.21,20.05a20.92,20.92,0,0,0,.63,3.7c4.91-2.18,14.18-12.08,16.37-17.14C803.74,492.67,808,499.57,810,508c-3.93,2-8,3.81-11.74,6.08a84.48,84.48,0,0,0-7.81,6c3.07,1.72,6.15,3.4,9.18,5.17S805.54,528.91,808.48,530.73Z"/><path class="cls-18" d="M730.32,529c8.24-.31,16.48-.74,24.72-.83a7.11,7.11,0,0,1,4.54,2.14c.48.48-.21,2.74-1,3.74-3.89,5.11-8.05,10-11.93,15.12-1.15,1.52-1.71,3.49-2.55,5.25C735.43,548.21,730.78,539.77,730.32,529Z"/><path class="cls-18" d="M770.82,561.41c-.73-1.34-2.34-2.95-2-4,1.86-6.14,4.11-12.15,6.31-18.18,1.37-3.74,4.25-4.56,7.1-1.65,4.26,4.35,8.13,9.06,12.17,13.61A38,38,0,0,1,770.82,561.41Z"/><path class="cls-18" d="M751.91,487.84l11.16,21.91-1.52,1.33c-8.9-.56-16.4-5.8-24.76-8.18Z"/><path class="cls-18" d="M808.48,530.73c-2.94-1.82-5.86-3.67-8.84-5.43s-6.11-3.45-9.18-5.17a84.48,84.48,0,0,1,7.81-6c3.76-2.27,7.81-4.07,11.74-6.08C812,515.77,811.89,523.36,808.48,530.73Z"/><path class="cls-18" d="M796.29,487.92c-2.19,5.06-11.46,15-16.37,17.14a20.92,20.92,0,0,1-.63-3.7c0-6.68.13-13.37.21-20.05Z"/><path class="cls-7" d="M578.1,510l-51.81.23a23.9,23.9,0,0,1,5-1.11c15.59-.09,31.17-.06,46.75-.07A2.18,2.18,0,0,1,578.1,510Z"/><path class="cls-21" d="M579.3,431.2,574.22,443C573,437.77,576.22,434.52,579.3,431.2Z"/><path class="cls-21" d="M574.26,453.12q2.5,5.89,5,11.79C576.32,461.52,572.85,458.36,574.26,453.12Z"/><path class="cls-8" d="M583.83,421q-2.21,5-4.4,10.06Q581.64,426.05,583.83,421Z"/><path class="cls-21" d="M582.58,469.19l-1.44.75c-.59-1.64-1.17-3.27-1.75-4.91Z"/><path class="cls-19" d="M498.32,500l-4.1-4.87Z"/><path class="cls-8" d="M390.17,419c8.78-7.32,19.45-10.74,30.12-13.61,18.27-4.92,36.84-6.17,55.62-2.37,24,4.85,32.6,27.42,26.58,47.35-.08.26-.45.42-.18.18-1.27-6.53-1.73-13.67-4.09-20.12-6-16.4-19.59-23-35.77-25.34-24.24-3.51-46.65,2.86-68.32,13a22.57,22.57,0,0,1-3.79,1.06Z"/><path class="cls-8" d="M390.34,419.14l-.55.37.38-.54Z"/><path class="cls-2" d="M468.25,505.94c0-4.51,5-9.61,9.38-9.57,6.68.07,9.61,2.84,9.61,9.13,0,4.6-5.38,9.52-10.43,9.54C471.2,515.06,468.22,511.9,468.25,505.94Z"/><path class="cls-28" d="M706.23,501.45l3.06-.18.57-1.85s12.79-9.58,18.39-18.41,20.64-18.76,31.49-18.6l46.52-1.21,1.79,1.57-3.69-18.95-39.77-2.89-32,10.22s-12.23,9-13.56,10.05-12.65,17-15.44,18.26S706.23,501.45,706.23,501.45Z"/><circle class="cls-29" cx="771.68" cy="519.85" r="44.25"/><circle class="cls-22" cx="771.68" cy="519.85" r="39.31"/><polygon class="cls-21" points="337.78 331.2 337.78 349.88 0 341.88 337.78 331.2"/><polygon class="cls-21" points="286.87 383.76 286.87 397.28 41.99 391.5 286.87 383.76"/><polygon class="cls-21" points="297.26 430.55 297.26 443.42 40.51 437.91 297.26 430.55"/></g></g></svg>